<svg width="15" height="15" viewBox="0 0 15 15" fill="none" xmlns="http://www.w3.org/2000/svg">
<rect y="0.000488281" width="15" height="15" rx="3" fill="#5790D3"/>
<g clip-path="url(#clip0)">
<path d="M12.6185 5.20741C12.6879 4.97304 12.6185 4.80054 12.2848 4.80054H11.1804C10.8992 4.80054 10.7698 4.94866 10.7004 5.11366C10.7004 5.11366 10.1379 6.48429 9.34291 7.37304C9.08604 7.62991 8.96791 7.71241 8.82729 7.71241C8.75791 7.71241 8.65104 7.62991 8.65104 7.39554V5.20741C8.65104 4.92616 8.57229 4.80054 8.33979 4.80054H6.60354C6.42729 4.80054 6.32229 4.93179 6.32229 5.05366C6.32229 5.31991 6.71979 5.38179 6.76104 6.13179V7.75929C6.76104 8.11554 6.69729 8.18116 6.55666 8.18116C6.18166 8.18116 5.27041 6.80491 4.73041 5.22991C4.62166 4.92429 4.51479 4.80054 4.23166 4.80054H3.12729C2.81229 4.80054 2.74854 4.94866 2.74854 5.11366C2.74854 5.40616 3.12354 6.85929 4.49416 8.77929C5.40729 10.0899 6.69354 10.8005 7.86354 10.8005C8.56666 10.8005 8.65291 10.643 8.65291 10.3712C8.65291 9.11866 8.58916 9.00054 8.94166 9.00054C9.10479 9.00054 9.38604 9.08304 10.0423 9.71491C10.7923 10.4649 10.916 10.8005 11.336 10.8005H12.4404C12.7554 10.8005 12.9148 10.643 12.8229 10.3318C12.6129 9.67741 11.1935 8.33116 11.1298 8.24116C10.9667 8.03116 11.0135 7.93741 11.1298 7.74991C11.1317 7.74804 12.4798 5.85054 12.6185 5.20741V5.20741Z" fill="white"/>
</g>
<defs>
<clipPath id="clip0">
<rect x="2.3999" y="3.00049" width="10.8" height="9.6" fill="white"/>
</clipPath>
</defs>
</svg>
